<svg width="85" height="99" viewBox="0 0 85 99" fill="none" xmlns="http://www.w3.org/2000/svg">
<g clip-path="url(#clip0_204_817)">
<path d="M20.0376 23.5124L19.7684 23.2565C19.7376 23.2272 19.7068 23.1976 19.6761 23.168C17.1563 20.7377 15.2062 17.9276 14.0283 14.6062C13.7124 13.7154 13.4706 12.8075 13.4899 11.8522L13.4939 11.7273C13.4981 11.6323 13.4978 11.537 13.5043 11.4422C13.5932 10.1497 14.4548 9.49666 15.7129 9.80273C16.1097 9.90591 16.4937 10.0536 16.8576 10.2431C18.1878 10.9129 19.2802 11.8922 20.2832 12.9714L20.3867 13.0834C22.2186 15.0406 23.6877 17.3104 24.7249 19.786C24.7476 19.845 24.7735 19.9026 24.8027 19.9587C24.8074 19.9673 24.8139 19.9749 24.823 19.9835L24.8933 20.0438C24.8999 20.0496 24.9069 20.0559 24.9144 20.0627C29.8243 17.1055 35.3784 15.3945 41.0955 15.0781L41.0812 15.0052L41.0441 14.8104C41.0362 14.7701 41.0283 14.7315 41.0196 14.6935L41.0061 14.637C40.4228 12.2135 40.2437 9.70958 40.4763 7.22723C40.5786 5.73967 40.8771 4.27232 41.3639 2.86358C41.5994 2.1216 41.9703 1.43005 42.4576 0.824215C42.6418 0.607818 42.8543 0.417511 43.0894 0.258505C43.5691 -0.0820107 44.2093 -0.0864915 44.6937 0.247277C45.1933 0.587055 45.5955 1.05245 45.8601 1.59702C46.3528 2.52059 46.7069 3.51218 46.911 4.53967C47.3762 6.7124 47.5191 8.94224 47.3349 11.1569C47.2437 12.5086 47.0101 13.8468 46.6378 15.149C46.8749 15.1929 47.1117 15.2351 47.3483 15.2765L48.4105 15.4604C49.2346 15.6039 50.053 15.7536 50.8613 15.9464C52.2438 16.2692 53.6068 16.6711 54.9436 17.1501C56.2914 17.6467 57.6097 18.2204 58.8921 18.8683C59.6314 19.2384 60.3499 19.6502 61.0713 20.0723L61.6909 20.436C62.0017 20.6183 62.3142 20.8009 62.6303 20.9812L62.6569 20.9272L62.7161 20.8089C62.736 20.7675 62.7552 20.7243 62.7713 20.68C64.0886 17.0219 66.3574 13.7845 69.3422 11.3042C70.0389 10.7037 70.8391 10.236 71.7032 9.92411C71.9412 9.84082 72.1876 9.784 72.4379 9.75466C73.6889 9.61085 74.214 10.4012 74.3065 11.345C74.3758 12.0408 74.3235 12.7434 74.152 13.4211C73.7113 15.1092 73.0235 16.7219 72.1113 18.2066L72.009 18.371C70.6868 20.5158 69.1235 22.4532 67.1501 24.0309L66.9975 24.1515C66.9841 24.162 66.971 24.173 66.9577 24.1847L66.894 24.2438L66.8142 24.3199C66.8039 24.3295 66.7932 24.3395 66.7818 24.3501C68.7828 26.2028 70.5648 28.2805 72.0929 30.542C71.9822 30.5707 71.8694 30.5907 71.7556 30.6017C69.6395 30.6047 67.5233 30.598 65.4073 30.6109C65.1546 30.6048 64.9197 30.4792 64.7737 30.2721C60.1568 25.2081 53.9325 21.9095 47.1631 20.9391C45.2446 20.6589 43.303 20.575 41.3681 20.6887L41.1157 20.7047C35.1595 21.0698 29.4586 23.2555 24.7776 26.9662L24.6316 27.0827C23.4158 28.0454 22.2818 29.1078 21.2412 30.259C21.0539 30.4922 20.7678 30.6229 20.4696 30.6113C19.2569 30.6029 18.0441 30.6021 16.8312 30.6027L13.9758 30.6043C13.9853 30.5672 14.0014 30.5228 14.0237 30.4718L14.0534 30.4074C14.0643 30.3849 14.0761 30.3614 14.0889 30.3369L14.13 30.2606L14.1765 30.1786L14.2283 30.0913L14.2852 29.9989L14.3471 29.9016L14.4487 29.747L14.5606 29.5828L14.6405 29.4684L14.768 29.2902C14.7827 29.2699 14.7975 29.2495 14.8125 29.229L14.9515 29.0411L15.0486 28.9123L15.149 28.781L15.3056 28.5797L15.4688 28.3742L15.5809 28.2352L15.6956 28.0948L15.8127 27.9535L15.9319 27.8113L16.0531 27.6686L16.2384 27.4539L16.364 27.3109L16.491 27.1681L16.6192 27.0259L16.7486 26.8845C17.378 26.2013 18.0298 25.539 18.6944 24.8694L19.3628 24.1964C19.5868 23.9706 19.8118 23.7429 20.0376 23.5124ZM71.5647 68.9814C70.1588 70.9568 68.5544 72.7818 66.7767 74.4277L67.1486 74.7386C70.2342 77.2726 72.5622 80.6132 73.8758 84.3918C74.2253 85.3133 74.3752 86.2989 74.3156 87.2831C74.2995 87.5037 74.2591 87.7217 74.1951 87.9331L74.1662 88.0233C73.9561 88.7253 73.2558 89.1581 72.5369 89.0305C72.0682 88.9694 71.6123 88.8336 71.1863 88.6282C70.5356 88.3059 69.9209 87.9151 69.3526 87.4623C66.4051 85.0311 64.1564 81.8567 62.8359 78.2661L62.749 78.0282L62.6304 77.7211C61.0363 78.7793 59.3666 79.718 57.635 80.5297C55.9118 81.3183 54.1298 81.9702 52.3052 82.4794C50.4513 82.9845 48.5614 83.3457 46.6523 83.5597L46.6782 83.6965L46.7013 83.8206C46.709 83.8604 46.7169 83.8988 46.7257 83.9365L46.7397 83.9926C47.3452 86.3775 47.5458 88.8477 47.333 91.2995C47.2532 92.8362 46.9558 94.3537 46.4496 95.8062C46.2087 96.4073 45.9309 96.9929 45.6179 97.5595C45.491 97.7793 45.3338 97.9798 45.1508 98.1552C44.3559 98.979 43.4068 98.9861 42.6321 98.1404C42.3259 97.7993 42.0637 97.4209 41.8518 97.0141C41.2373 95.856 40.921 94.5968 40.6952 93.3128C40.4046 91.5601 40.3136 89.7799 40.4238 88.0065C40.4803 86.7843 40.6547 85.5705 40.9443 84.3824L40.9999 84.1599C41.0279 84.0531 41.0534 83.9454 41.0741 83.837C41.0764 83.8248 41.0742 83.8116 41.0691 83.7931L41.047 83.7165C41.0447 83.708 41.0424 83.6988 41.04 83.689C35.3238 83.3647 29.7729 81.6445 24.8692 78.6777L24.6833 79.0908C24.6718 79.1166 24.6605 79.1423 24.6491 79.1681C23.299 82.3308 21.2339 85.1334 18.6183 87.3545L18.4777 87.4729C17.7676 88.0821 16.952 88.5551 16.0717 88.8682C15.6591 89.0344 15.2088 89.083 14.7705 89.0086C14.2957 88.9232 13.8976 88.6023 13.7112 88.1584L13.6913 88.1085C13.4311 87.4769 13.4527 86.8221 13.5326 86.1699L13.5547 85.9999C13.7122 85.013 14.0016 84.0519 14.415 83.1427C15.6399 80.2787 17.4427 77.7007 19.7097 75.5712L19.8943 75.3982C19.925 75.3693 19.9555 75.3402 19.9855 75.3106C20.0141 75.2694 20.0386 75.2254 20.0585 75.1792C17.9224 73.3195 16.0138 71.2117 14.3727 68.9002L14.4359 68.8947L14.6513 68.8739C14.7155 68.868 14.774 68.8641 14.8325 68.864C16.5124 68.8624 18.1923 68.8669 19.8722 68.8615L21.1321 68.8553C21.415 68.8466 21.6867 68.9664 21.8718 69.1813C24.1027 71.4855 26.6938 73.4075 29.542 74.8714L29.7412 74.9728C32.8374 76.5723 36.2041 77.5769 39.6679 77.9349C49.0786 78.8533 57.1738 75.9892 63.9535 69.3425C64.2605 69.0094 64.6988 68.83 65.1503 68.8526C66.1291 68.8648 67.1079 68.8673 68.0868 68.8667L70.0447 68.8636C70.371 68.863 70.6973 68.8626 71.0236 68.8626H71.5296L71.5647 68.9814Z" fill="#0F1689"/>
<path d="M62.8184 38.8763C62.9421 38.8763 63.0648 38.8781 63.1866 38.8805L63.5494 38.8879C63.7898 38.892 64.0271 38.8927 64.2627 38.8792L64.4391 38.8662C65.0372 38.8119 65.4654 39.0266 65.9017 39.4302C68.0009 41.3721 70.1183 43.2941 72.2338 45.2182L73.5507 46.4165L73.6998 46.5495L73.9241 46.748L74.1893 46.5216C74.2462 46.4726 74.3018 46.4239 74.3565 46.374C76.9712 43.9843 79.5841 41.5926 82.195 39.1987C82.4013 38.9854 82.6846 38.8662 82.9792 38.8672L83.0345 38.8688C83.4363 38.8851 83.8388 38.884 84.2497 38.8808L84.7473 38.877C84.831 38.8766 84.9153 38.8763 85 38.8763V60.0027C84.9917 60.0052 84.9809 60.0076 84.9678 60.0099L84.9214 60.0168L84.8614 60.0234L84.7887 60.0296L84.7038 60.0356L84.5554 60.0441L84.2574 60.0565L83.9057 60.067L83.5112 60.0755L82.9078 60.0837L82.3637 60.0874L81.8148 60.0877L81.4556 60.0861L81.0238 60.0819L80.6992 60.0768L80.4714 60.0719L80.2598 60.066L80.0069 60.0568L79.8422 60.0488L79.7015 60.0398L79.6222 60.0333L79.5554 60.0263C79.5453 60.0251 79.5358 60.0239 79.5269 60.0226L79.48 60.015V49.3159L79.3728 49.2649L73.933 54.2455L68.4491 49.286L68.3444 49.3244L68.3419 50.2175L68.3423 52.0036L68.3418 53.3348L68.3422 60.0539H62.8643C62.8592 60.0361 62.8542 59.9702 62.8493 59.8607L62.8436 59.7089L62.838 59.5171L62.8299 59.1585L62.8222 58.7203L62.8124 58.0228L62.8012 56.9891L62.7858 55.0279L62.775 53.081L62.7661 50.696L62.7606 47.9474L62.7599 46.1546L62.7629 43.9106L62.7671 42.6396L62.7747 41.2951L62.7832 40.3586L62.7915 39.7501L62.7987 39.3853L62.8039 39.1891L62.8094 39.0326L62.8153 38.9176C62.8163 38.902 62.8173 38.8882 62.8184 38.8763ZM12.2697 38.9005H17.7146C17.719 38.9145 17.7233 38.9605 17.7274 39.0358L17.7334 39.1705L17.7393 39.3474L17.7449 39.5644L17.7529 39.9613L17.7651 40.797L17.7738 41.6051L17.7834 42.7647L17.7956 44.8952L17.8012 46.3523L17.8072 49.1083L17.8082 50.9692L17.8062 53.0847L17.8028 54.5161L17.7963 56.099L17.7888 57.2709L17.7774 58.4559L17.7707 58.9429L17.7659 59.2241L17.7607 59.4683L17.7552 59.6736L17.7494 59.8381L17.7433 59.9599C17.7401 60.0097 17.7369 60.0429 17.7335 60.0583H12.2837C12.2666 59.2902 12.2659 58.5237 12.2678 57.758L12.2708 56.6098C12.2711 56.4185 12.271 56.2272 12.2705 56.036L12.2693 55.4668L12.2686 54.326L12.2697 52.018H5.5217V59.986C5.51142 59.9891 5.49849 59.9921 5.48304 59.9951L5.42928 60.0037L5.36121 60.0119L5.234 60.0234L5.13362 60.0306L4.89899 60.0436L4.69652 60.0522L4.39628 60.0623L4.15185 60.0687L3.80534 60.0757L3.25427 60.083L2.68456 60.0863L2.21097 60.0861L1.75158 60.0832L1.23645 60.0759L0.924793 60.0689L0.645925 60.06L0.462089 60.0522L0.353068 60.0464L0.255796 60.0402L0.133647 60.03C0.12174 60.0288 0.110406 60.0276 0.0996604 60.0264L0.042376 60.0188C0.025722 60.0161 0.0115528 60.0135 0 60.0107V38.9029H5.49986V46.3592C5.50813 46.3616 5.51879 46.364 5.53175 46.3663L5.57738 46.3731L5.63616 46.3797L5.74768 46.3891L5.88546 46.3979L6.10654 46.4087L6.29779 46.4162L6.50862 46.423L6.98104 46.4348L7.59975 46.4455L7.97672 46.45L8.56155 46.4547L9.15539 46.4567L9.93354 46.4552L10.3967 46.4517L10.831 46.4463L11.2271 46.4388L11.5757 46.4294L11.8676 46.4179L12.0117 46.41L12.1301 46.4013L12.1937 46.3951C12.2032 46.3941 12.2122 46.393 12.2207 46.3919L12.2647 46.3852L12.2686 45.0238C12.269 44.8712 12.2693 44.7183 12.2695 44.5655L12.2702 43.6144L12.2697 38.9005ZM24.241 60.0505V38.9631C24.2507 38.9599 24.2708 38.9568 24.3009 38.9537L24.3739 38.9477C24.3882 38.9467 24.4036 38.9457 24.42 38.9447L24.5945 38.9361L24.8209 38.9278L25.0953 38.92L25.5297 38.9102L26.0342 38.9011L26.6001 38.8929L28.0524 38.8775L28.7572 38.8721L30.418 38.8635L31.7301 38.8603L33.186 38.8607L34.3688 38.8647L35.2776 38.871L35.9383 38.8784L36.4928 38.8878L36.6811 38.8922L36.9241 38.8993L37.1165 38.9072L37.2149 38.9129L37.2881 38.9189C37.2982 38.9199 37.3071 38.921 37.3149 38.9221V43.4161C37.1394 43.4288 36.9583 43.4529 36.7771 43.4531L33.5799 43.4556L29.79 43.4549V46.9503H36.4499V51.6003H29.8496C29.8402 51.634 29.8314 51.6848 29.8232 51.75L29.8137 51.8349L29.8047 51.9327L29.7924 52.101L29.785 52.2263L29.775 52.4311L29.7664 52.6532L29.7572 52.9702L29.752 53.2191L29.7484 53.4738L29.746 53.8164L29.747 54.2378L29.7498 54.4809L29.7526 54.6368L29.7562 54.7866L29.763 54.9974L29.7715 55.1886L29.7782 55.3036L29.7857 55.4072L29.794 55.4985C29.7954 55.5127 29.7969 55.5263 29.7984 55.5393C29.9671 55.5507 30.1479 55.5733 30.3287 55.5735L33.5259 55.5758L37.3162 55.5751V60.0505H24.241ZM43.5551 60.0585C43.5511 60.0359 43.5473 59.9818 43.5437 59.8989L43.5384 59.7531L43.5334 59.5658L43.5287 59.339L43.5221 58.9288L43.5162 58.4402L43.5061 57.2535L43.4996 56.0815L43.4932 54.2211L43.4895 51.5715L43.4918 48.1743L43.4989 45.4707L43.5091 43.2751L43.5191 41.8329L43.5289 40.8062L43.5376 40.1208L43.5423 39.8286L43.5497 39.4588L43.5549 39.2607L43.5603 39.1036L43.5658 38.9893C43.5687 38.9431 43.5716 38.9138 43.5746 38.9022H48.9993V54.4941L49.1661 54.5039L49.3188 54.5136L49.4621 54.5211C49.5088 54.523 49.5547 54.5241 49.6006 54.5242L52.8216 54.526L56.6233 54.5255V60.0585H43.5551Z" fill="#0F1689"/>
</g>
<defs>
<clipPath id="clip0_204_817">
<rect width="85" height="99" fill="white"/>
</clipPath>
</defs>
</svg>
