<svg width="100" height="100" viewBox="0 0 100 100" fill="none" xmlns="http://www.w3.org/2000/svg">
<g clip-path="url(#clip0_204_771)">
<path fill-rule="evenodd" clip-rule="evenodd" d="M53.4101 0.867005C52.375 0.298219 51.213 0 50.032 0C48.8509 0 47.689 0.298219 46.6539 0.867005L12.0291 19.8981C12.0005 19.9139 11.9721 19.9299 11.9437 19.946L7.38539 22.4502C6.28469 23.0553 5.36665 23.9448 4.72717 25.0259C4.08768 26.107 3.75021 27.3399 3.75 28.596V71.404C3.75 73.9623 5.14166 76.3186 7.38539 77.5498L42.3372 96.7622L42.4727 96.833L46.6539 99.133C47.689 99.7018 48.8509 100 50.032 100C51.213 100 52.375 99.7018 53.4101 99.133L57.6017 96.8288L57.7267 96.7622L92.6786 77.5498C93.7796 76.945 94.6981 76.0556 95.338 74.9745C95.9778 73.8934 96.3156 72.6603 96.316 71.404V28.5981C96.3156 27.3418 95.9778 26.1087 95.338 25.0276C94.6981 23.9465 93.7796 23.0571 92.6786 22.4523L88.1369 19.9523C88.1031 19.9339 88.069 19.9158 88.0348 19.8981L53.4101 0.867005ZM55.6351 49.9979L88.0348 32.1897L88.1328 32.1355L88.5203 31.923C88.7666 31.7878 89.0439 31.719 89.3249 31.7234C89.6058 31.7278 89.8808 31.8053 90.1228 31.9482C90.3647 32.0912 90.5653 32.2946 90.7048 32.5386C90.8442 32.7826 90.9178 33.0587 90.9182 33.3397V66.6582C90.9182 67.8895 89.5994 68.6707 88.5223 68.0749L88.2223 67.9124C88.1602 67.8764 88.0977 67.8409 88.0348 67.8061L55.6351 49.9979ZM11.9479 32.1439L12.0312 32.1918L44.4268 49.9979L12.0291 67.8061C11.969 67.8403 11.9093 67.875 11.8499 67.9103L11.5437 68.077C11.2974 68.2122 11.0201 68.281 10.7391 68.2766C10.4581 68.2722 10.1831 68.1947 9.94116 68.0518C9.6992 67.9088 9.49863 67.7054 9.35918 67.4614C9.21972 67.2174 9.14618 66.9413 9.1458 66.6603V33.3418C9.1458 32.1126 10.4645 31.3314 11.5416 31.9251L11.9479 32.1439ZM85.4849 24.6523L55.1267 7.96696C54.8839 7.83388 54.6109 7.76535 54.334 7.76791C54.057 7.77046 53.7854 7.84403 53.545 7.98157C53.3046 8.11911 53.1036 8.31602 52.961 8.55346C52.8185 8.79091 52.7393 9.06096 52.7309 9.33778V45.4375L85.4828 27.4356C85.7241 27.2922 85.924 27.0885 86.0629 26.8445C86.2017 26.6005 86.2747 26.3246 86.2747 26.0439C86.2747 25.7632 86.2017 25.4873 86.0629 25.2433C85.924 24.9993 85.7241 24.7956 85.4828 24.6523H85.4849ZM14.5895 27.4397L47.333 45.4396V9.3357C47.3243 9.05906 47.2449 8.78927 47.1022 8.5521C46.9595 8.31493 46.7584 8.11831 46.5181 7.98101C46.2778 7.84371 46.0062 7.77033 45.7295 7.76787C45.4527 7.76541 45.1799 7.83395 44.9372 7.96696L14.5853 24.6502C14.3421 24.793 14.1404 24.997 14.0002 25.2418C13.8601 25.4867 13.7864 25.7639 13.7864 26.046C13.7864 26.3281 13.8601 26.6053 14.0002 26.8502C14.1404 27.095 14.3421 27.299 14.5853 27.4418L14.5895 27.4397ZM14.6291 75.3727C14.3822 75.2372 14.175 75.0396 14.0279 74.7994C13.8807 74.5593 13.7988 74.2849 13.7902 74.0034C13.7816 73.7219 13.8465 73.443 13.9787 73.1943C14.1108 72.9456 14.3056 72.7357 14.5437 72.5853L47.333 54.5625V90.6622C47.325 90.9332 47.2491 91.1977 47.1122 91.4317C46.9753 91.6656 46.7819 91.8615 46.5497 92.0012C46.3174 92.141 46.0538 92.2202 45.783 92.2316C45.5122 92.2429 45.2429 92.1861 44.9997 92.0664L14.6291 75.3727ZM52.7288 90.6143V54.5604L85.5244 72.5853C85.7619 72.7361 85.9559 72.9463 86.0873 73.195C86.2188 73.4437 86.2832 73.7223 86.2741 74.0035C86.2651 74.2847 86.1829 74.5586 86.0358 74.7984C85.8886 75.0381 85.6815 75.2353 85.4349 75.3707L55.0663 92.0622C54.8232 92.1829 54.5536 92.2404 54.2823 92.2296C54.0111 92.2188 53.747 92.1399 53.5142 92.0003C53.2814 91.8607 53.0875 91.6648 52.9503 91.4306C52.813 91.1964 52.7369 90.9315 52.7288 90.6601V90.6122V90.6143Z" fill="#0D1A2B"/>
<path d="M49.258 5.59195C49.4968 5.46083 49.7648 5.39209 50.0372 5.39209C50.3096 5.39209 50.5776 5.46083 50.8163 5.59195L85.4411 24.6231C85.6953 24.7627 85.9072 24.968 86.0549 25.2176C86.2025 25.4672 86.2804 25.7518 86.2804 26.0418C86.2804 26.3318 86.2025 26.6164 86.0549 26.866C85.9072 27.1156 85.6953 27.3209 85.4411 27.4605L50.8163 46.4917C50.5776 46.623 50.3096 46.6918 50.0372 46.6918C49.7648 46.6918 49.4967 46.623 49.258 46.4917L14.6333 27.4605C14.3791 27.3209 14.1671 27.1156 14.0195 26.866C13.8718 26.6164 13.7939 26.3318 13.7939 26.0418C13.7939 25.7518 13.8718 25.4672 14.0195 25.2176C14.1671 24.968 14.3791 24.7627 14.6333 24.6231L49.258 5.59195Z" fill="#E7C200"/>
<path d="M9.14795 33.3398C9.14795 32.1086 10.4667 31.3273 11.5459 31.9211L46.4977 51.1313C46.7519 51.2709 46.9639 51.4762 47.1116 51.7258C47.2593 51.9754 47.3372 52.2601 47.3373 52.5501V90.6123C47.3373 91.8415 46.0185 92.6227 44.9394 92.029L9.98545 72.8208C9.73133 72.6807 9.51951 72.475 9.37218 72.225C9.22484 71.9751 9.1474 71.6901 9.14795 71.4V33.3398Z" fill="#FFDA18"/>
<path d="M88.5245 31.9209C88.7707 31.7861 89.0478 31.7177 89.3285 31.7224C89.6092 31.7271 89.8838 31.8046 90.1255 31.9475C90.3671 32.0904 90.5674 32.2937 90.7068 32.5374C90.8461 32.7811 90.9197 33.0568 90.9203 33.3375V71.3998C90.9205 71.6896 90.8428 71.9741 90.6955 72.2237C90.5482 72.4732 90.3366 72.6787 90.0828 72.8185L55.1309 92.0309C54.8844 92.1667 54.6067 92.236 54.3252 92.2317C54.0438 92.2275 53.7683 92.1499 53.526 92.0066C53.2836 91.8634 53.0829 91.6594 52.9434 91.4149C52.804 91.1703 52.7308 90.8936 52.731 90.6121V52.5499C52.731 51.9603 53.0539 51.4166 53.5705 51.1332L88.5245 31.9209Z" fill="white"/>
<path d="M23.8271 63.2043L23.8228 63.2564L15.6292 58.9439L15.6334 58.8918C15.823 56.3439 17.8125 55.2418 20.075 56.4335C22.3375 57.621 24.0166 60.6543 23.8271 63.2043ZM36.7207 70.6438L36.7165 70.6959L28.5228 66.3855L28.527 66.3334C28.7145 63.7834 30.7041 62.6814 32.9666 63.873C35.2291 65.0605 36.9103 68.0938 36.7186 70.6438H36.7207Z" fill="#0D1A2B"/>
</g>
<defs>
<clipPath id="clip0_204_771">
<rect width="100" height="100" fill="white"/>
</clipPath>
</defs>
</svg>
