<svg role="img" viewBox="0 0 24 24" xmlns="http://www.w3.org/2000/svg" id="Opentofu--Streamline-Simple-Icons" height="24" width="24"><desc>Opentofu Streamline Icon: https://streamlinehq.com</desc><title>OpenTofu</title><path d="m10.184 23.25 0.002 -0.01 -0.033 -0.017 -8.388 -4.611a1.6841 1.6841 0 0 1 -0.873 -1.475V6.864c0 -0.614 0.335 -1.18 0.873 -1.476l9.424 -5.18a1.6868 1.6868 0 0 1 1.622 0l8.31 4.568 0.022 0.012 0.006 0.002 -0.004 -0.001 1.09 0.599c0.538 0.296 0.873 0.862 0.873 1.476v10.273c0 0.614 -0.335 1.179 -0.873 1.475l-8.388 4.611 -0.03 0.016 -1.006 0.553c-0.505 0.277 -1.117 0.277 -1.622 0l-1.003 -0.552 -0.002 0.01Zm0.603 -1.158 -0.005 -0.001 0.012 0.006c0.252 0.123 0.55 -0.055 0.558 -0.338l0.001 -9.147c0 -0.141 -0.078 -0.272 -0.202 -0.34L2.763 7.661c-0.259 -0.142 -0.576 0.045 -0.576 0.341v9.135c0 0.141 0.077 0.272 0.201 0.34l8.394 4.613 0.005 0.002Zm0.556 -0.327Zm0 0Zm-2.539 -4.802 -0.005 0.003 -1.959 -1.031 -0.003 -0.004c0.001 -0.003 0.001 -0.007 0.001 -0.01 0.023 -0.305 0.153 -0.525 0.346 -0.632 0.194 -0.107 0.45 -0.101 0.72 0.041 0.272 0.143 0.508 0.397 0.671 0.691 0.163 0.293 0.252 0.628 0.229 0.935v0.007ZM5.71 15.177l-0.005 0.002 -1.96 -1.031 -0.002 -0.004 0.001 -0.01c0.022 -0.304 0.152 -0.524 0.346 -0.632 0.194 -0.107 0.449 -0.101 0.72 0.042 0.271 0.143 0.508 0.396 0.671 0.69 0.162 0.294 0.252 0.628 0.229 0.935v0.008Zm14.981 -8.999 -0.003 -0.018a0.382 0.382 0 0 0 -0.191 -0.25l-8.31 -4.567a0.3883 0.3883 0 0 0 -0.374 0L3.503 5.91c-0.162 0.089 -0.226 0.265 -0.193 0.423l0.009 0.007 -0.009 -0.007c0.022 0.1 0.083 0.194 0.183 0.253l8.32 4.572c0.116 0.064 0.258 0.064 0.374 0l8.321 -4.573c0.151 -0.089 0.212 -0.256 0.183 -0.407Zm-17.37 0.16Zm-0.002 0.002c0 -0.001 -0.003 -0.003 -0.005 -0.006 -0.002 -0.002 -0.004 -0.004 -0.004 -0.003l0.009 0.009Zm-0.467 -1.56 -0.003 0.002c0.002 0.004 0.005 0.006 0.005 0.006l-0.002 -0.008Zm0.007 0.007c-0.001 0.001 -0.002 0.001 -0.003 0.001h-0.002l0.005 -0.001Z" fill="#000000" stroke-width="1"></path></svg>